<?xml version="1.0" encoding="UTF-8" standalone="no"?>
<!-- Created with Inkscape (http://www.inkscape.org/) -->

<svg
   xmlns:dc="http://purl.org/dc/elements/1.1/"
   xmlns:cc="http://creativecommons.org/ns#"
   xmlns:rdf="http://www.w3.org/1999/02/22-rdf-syntax-ns#"
   xmlns:svg="http://www.w3.org/2000/svg"
   xmlns="http://www.w3.org/2000/svg"
   xmlns:sodipodi="http://sodipodi.sourceforge.net/DTD/sodipodi-0.dtd"
   xmlns:inkscape="http://www.inkscape.org/namespaces/inkscape"
   width="300"
   height="300"
   viewBox="0 0 79.374998 79.375002"
   version="1.1"
   id="svg8"
   inkscape:version="0.92.1 r"
   sodipodi:docname="typing.svg">
  <defs
     id="defs2" />
  <sodipodi:namedview
     id="base"
     pagecolor="#ffffff"
     bordercolor="#666666"
     borderopacity="1.0"
     inkscape:pageopacity="0.0"
     inkscape:pageshadow="2"
     inkscape:zoom="1.4"
     inkscape:cx="131.38253"
     inkscape:cy="125.78861"
     inkscape:document-units="mm"
     inkscape:current-layer="layer1"
     showgrid="false"
     units="px"
     inkscape:window-width="1366"
     inkscape:window-height="678"
     inkscape:window-x="0"
     inkscape:window-y="31"
     inkscape:window-maximized="1" />
  <metadata
     id="metadata5">
    <rdf:RDF>
      <cc:Work
         rdf:about="">
        <dc:format>image/svg+xml</dc:format>
        <dc:type
           rdf:resource="http://purl.org/dc/dcmitype/StillImage" />
        <dc:title />
      </cc:Work>
    </rdf:RDF>
  </metadata>
  <g
     inkscape:label="Camada 1"
     inkscape:groupmode="layer"
     id="layer1"
     transform="translate(0,-217.62498)">
    <g
       id="g4543">
      <path
         sodipodi:nodetypes="cccccc"
         inkscape:connector-curvature="0"
         id="path4503"
         d="m 18.708867,269.67167 -1.719172,8.31307 c 29.330427,-0.07 28.893584,0.45237 43.747305,0.10593 -1.648162,-5.45676 -3.429959,-10.51261 -5.078121,-15.96936 -1.534539,-2.08611 -6.240753,-2.98284 -12.02713,-3.47451 -12.134418,-0.052 -23.176429,-2.17126 -24.922882,11.02487 z"
         style="fill:#ffffff;fill-opacity:1;fill-rule:evenodd;stroke:none;stroke-width:0.26458332px;stroke-linecap:butt;stroke-linejoin:miter;stroke-opacity:1" />
      <path
         inkscape:connector-curvature="0"
         id="path4549"
         d="m 14.233611,277.85821 -0.371085,3.43862 2.300734,1.22262 45.940475,0.38207 0.964822,-2.36883 -0.371085,-3.3622 -46.905299,0.15283 z"
         style="fill:#d7101e;fill-opacity:1;fill-rule:evenodd;stroke:none;stroke-width:0.29820225px;stroke-linecap:butt;stroke-linejoin:miter;stroke-opacity:1" />
      <path
         sodipodi:nodetypes="cccssccsccscsssssccscsccsccccccscccc"
         inkscape:connector-curvature="0"
         id="path4551"
         d="m 15.792173,277.32332 3.117125,-11.30922 -1.410128,-0.53491 c -0.346346,0.5349 -0.51468,1.2557 -1.039041,1.6047 -1.243472,0.82762 -3.829716,1.28242 -4.081948,-1.83393 l -0.371087,-4.58482 c -3.3312528,-1.38536 -3.2810748,-3.88387 0,-4.58482 -0.172057,-1.69168 -0.142249,-3.4243 0.890608,-4.66123 2.251943,-2.69688 3.588174,-0.62315 4.82412,0.91697 1.410127,-0.051 2.820256,-0.1019 4.230383,-0.15284 0.346844,-3.74426 1.091454,-7.62833 -0.148435,-11.2328 l -1.261692,-3.66786 c -0.761962,-2.35215 0.98099,-3.71959 3.339776,-3.8971 8.636232,-0.64992 16.145096,-1.959 23.378432,-4.27916 0.971844,-0.31173 1.767805,-1.08568 2.746037,-1.37545 1.918818,-0.56839 3.371663,0.34188 3.933514,2.82731 0.362493,1.60353 1.622825,8.21182 1.929648,12.37901 0.239371,3.25108 -0.07421,9.78095 -0.07421,9.78095 h 4.453033 c 1.444069,-3.53881 3.325226,-3.42476 4.824121,-0.99337 0.980063,1.58978 0.989563,3.51502 0.81639,5.34894 l 1.558562,0.53491 c 1.330349,0.45658 1.422768,1.86649 0.148436,2.98012 l -1.63278,0.91697 c -0.01044,1.40895 0.157975,2.90711 -0.519523,4.12634 -1.088092,1.95813 -2.476026,2.40659 -3.636645,1.29904 l -3.71086,-0.53491 3.099888,10.71646 c -0.296869,0.0764 -0.685577,0.0447 -1.048045,0.0401 -1.60804,-4.30464 -3.18984,-8.74436 -4.797881,-13.049 -0.911294,-2.7981 -2.94121,-3.38134 -5.120989,-3.66785 -6.517906,-0.47709 -12.633472,-1.40664 -19.890224,-0.30566 -2.042088,0.30981 -4.18003,0.42851 -6.382682,1.22262 -1.742867,0.96058 -2.939109,2.90606 -3.562427,5.88384 l -3.191342,10.08661 z"
         style="fill:#d7101e;fill-opacity:1;fill-rule:evenodd;stroke:none;stroke-width:0.29867187;stroke-linecap:butt;stroke-linejoin:miter;stroke-miterlimit:4;stroke-dasharray:none;stroke-opacity:1" />
      <path
         sodipodi:nodetypes="ccccccscscc"
         inkscape:connector-curvature="0"
         id="path4555"
         d="m 19.725687,264.02734 c -0.742172,0.48395 -1.076149,0.0509 -1.892539,0.0764 1.020497,-3.07153 1.06901,-6.37853 0.408195,-9.85736 14.00561,0.78107 27.824062,0.59867 41.635873,0.38207 -0.250771,3.49963 -0.418659,6.99267 0.593739,10.39225 -0.902974,0.0382 -1.76884,-0.34386 -2.560488,0.11462 -1.340233,-2.60238 -0.87699,-5.0524 -5.083889,-6.07489 -7.737142,-1.88052 -16.372735,-0.98673 -22.116737,-0.84054 -3.05785,0.0489 -6.323464,0.2176 -9.054505,2.59806 -0.932678,0.81295 -1.286433,2.13959 -1.929649,3.20937 z"
         style="fill:#ffffff;fill-opacity:1;fill-rule:evenodd;stroke:none;stroke-width:0.29820225px;stroke-linecap:butt;stroke-linejoin:miter;stroke-opacity:1" />
      <path
         sodipodi:nodetypes="ccscscscscc"
         inkscape:connector-curvature="0"
         id="path4576"
         d="m 22.716028,252.23466 c 1.120455,-2.76155 1.160928,-6.02348 0.892152,-9.42868 l -0.813433,-4.80891 c -0.393582,-2.32681 -0.05493,-2.9432 2.335338,-2.89075 4.679424,-0.56734 9.413275,-0.77538 14.038272,-1.70203 3.182626,-0.63767 6.192582,-1.98119 9.288873,-2.97178 2.507632,-1.59319 3.315431,-1.1496 3.594849,0.8375 0.422173,3.00232 1.350811,5.89928 1.574385,8.91537 l 0.419836,10.18516 c 0.03016,0.73149 -0.122452,1.45888 -0.183679,2.18832 -11.640642,0.79057 -19.850564,-0.0305 -31.146593,-0.3242 z"
         style="fill:#ffffff;fill-opacity:1;fill-rule:evenodd;stroke:none;stroke-width:0.29820225px;stroke-linecap:butt;stroke-linejoin:miter;stroke-opacity:1" />
      <path
         inkscape:connector-curvature="0"
         id="path4547"
         d="m 15.975398,279.06328 45.569389,0.30565 0.07422,1.52828 -44.010825,-0.38207 -1.63278,0.15282 z"
         style="fill:#ffffff;fill-opacity:1;fill-rule:evenodd;stroke:none;stroke-width:0.29820225px;stroke-linecap:butt;stroke-linejoin:miter;stroke-opacity:1" />
      <ellipse
         ry="1.3508154"
         rx="2.6764553"
         cy="272.90216"
         cx="26.310875"
         id="path4593"
         style="fill:#ffffff;fill-opacity:1;stroke:#d7101e;stroke-width:1.20032287;stroke-miterlimit:4;stroke-dasharray:none;stroke-opacity:1" />
      <ellipse
         ry="1.3508154"
         rx="2.6764553"
         cy="272.91214"
         cx="34.353943"
         id="path4593-7"
         style="fill:#ffffff;fill-opacity:1;stroke:#d7101e;stroke-width:1.20032287;stroke-miterlimit:4;stroke-dasharray:none;stroke-opacity:1" />
      <ellipse
         ry="1.3508154"
         rx="2.6764553"
         cy="272.98853"
         cx="42.22097"
         id="path4593-5"
         style="fill:#ffffff;fill-opacity:1;stroke:#d7101e;stroke-width:1.20032287;stroke-miterlimit:4;stroke-dasharray:none;stroke-opacity:1" />
      <ellipse
         ry="1.3508154"
         rx="2.6764553"
         cy="272.86734"
         cx="49.977768"
         id="path4593-3"
         style="fill:#ffffff;fill-opacity:1;stroke:#d7101e;stroke-width:1.20032287;stroke-miterlimit:4;stroke-dasharray:none;stroke-opacity:1" />
      <ellipse
         ry="1.3508154"
         rx="2.6764553"
         cy="267.48676"
         cx="30.550852"
         id="path4593-56"
         style="fill:#ffffff;fill-opacity:1;stroke:#d7101e;stroke-width:1.20032287;stroke-miterlimit:4;stroke-dasharray:none;stroke-opacity:1" />
      <ellipse
         ry="1.3508154"
         rx="2.6764553"
         cy="267.48676"
         cx="38.046799"
         id="path4593-2"
         style="fill:#ffffff;fill-opacity:1;stroke:#d7101e;stroke-width:1.20032287;stroke-miterlimit:4;stroke-dasharray:none;stroke-opacity:1" />
      <ellipse
         ry="1.3508154"
         rx="2.6764553"
         cy="267.41034"
         cx="45.673168"
         id="path4593-9"
         style="fill:#ffffff;fill-opacity:1;stroke:#d7101e;stroke-width:1.20032287;stroke-miterlimit:4;stroke-dasharray:none;stroke-opacity:1" />
      <path
         inkscape:connector-curvature="0"
         id="path4652"
         d="m 25.588849,239.88062 22.784694,-3.36219"
         style="fill:none;fill-rule:evenodd;stroke:#000000;stroke-width:0.29820225px;stroke-linecap:butt;stroke-linejoin:miter;stroke-opacity:1" />
      <path
         inkscape:connector-curvature="0"
         id="path4687"
         d="m 26.100956,242.53581 22.566194,-3.1339"
         style="fill:none;fill-rule:evenodd;stroke:#000000;stroke-width:0.29820225px;stroke-linecap:butt;stroke-linejoin:miter;stroke-opacity:1" />
      <path
         inkscape:connector-curvature="0"
         id="path4689"
         d="m 26.730711,245.39953 22.303795,-2.80969"
         style="fill:none;fill-rule:evenodd;stroke:#000000;stroke-width:0.29820225px;stroke-linecap:butt;stroke-linejoin:miter;stroke-opacity:1" />
      <path
         inkscape:connector-curvature="0"
         id="path4691"
         d="m 26.94063,248.47939 22.303793,-2.70163"
         style="fill:none;fill-rule:evenodd;stroke:#000000;stroke-width:0.29820225px;stroke-linecap:butt;stroke-linejoin:miter;stroke-opacity:1" />
      <path
         inkscape:connector-curvature="0"
         id="path4693"
         d="m 27.780301,251.39716 21.936439,-2.3234"
         style="fill:none;fill-rule:evenodd;stroke:#000000;stroke-width:0.29820225px;stroke-linecap:butt;stroke-linejoin:miter;stroke-opacity:1" />
      <ellipse
         ry="6.3656101"
         rx="1.7080112"
         cy="259.16757"
         cx="15.056449"
         id="path4712"
         style="fill:#ffffff;fill-opacity:1;stroke:none;stroke-width:1.33280122;stroke-miterlimit:4;stroke-dasharray:none;stroke-opacity:1" />
      <ellipse
         ry="6.3656101"
         rx="1.7080113"
         cy="259.06979"
         cx="63.046535"
         id="path4712-0"
         style="fill:#ffffff;fill-opacity:1;stroke:none;stroke-width:1.33280134;stroke-miterlimit:4;stroke-dasharray:none;stroke-opacity:1" />
    </g>
  </g>
</svg>
